/* XPM */
static char *_27320a3ee2243c4ad1fe36e1e4234fbbPtU0dUKYDglrF10[] = {
/* columns rows colors chars-per-pixel */
"15 15 59 1 ",
"  c None",
". c black",
"X c #1C1916",
"o c black",
"O c #37280F",
"+ c #1F1C19",
"@ c #6F561A",
"# c black",
"$ c black",
"% c #414245",
"& c #211A07",
"* c #7F7C70",
"= c #36280F",
"- c #43360D",
"; c #372C0B",
": c #2C2109",
"> c #000002",
", c #4B4C4D",
"< c #272727",
"1 c None",
"2 c #343436",
"3 c #7E7852",
"4 c #FAE417",
"5 c #D7A82F",
"6 c #FCE616",
"7 c #6E600F",
"8 c #F2E9B6",
"9 c #FBFB68",
"0 c #FCFC8E",
"q c #939400",
"w c #FAEB0F",
"e c #FAEE93",
"r c #E6BE28",
"t c #FCE83E",
"y c #2E2E31",
"u c #261C0A",
"i c #EEE5B3",
"p c #FBFB65",
"a c #969600",
"s c #B3A424",
"d c #CEA12D",
"f c #DDCE0D",
"g c #F2DC16",
"h c #F2D51F",
"j c #E6DFBB",
"k c #DCC219",
"l c #CB9D2E",
"z c #E8E6DC",
"x c #FBFA75",
"c c #FCFB1F",
"v c #F2E480",
"b c #D2CD51",
"n c #868105",
"m c #4F440A",
"M c #C69432",
"N c #E5DFB9",
"B c #FCE66B",
"V c #FDF7B4",
"C c #E1C71A",
/* pixels */
"   $.XyyyX.$   ",
"  $<2*jNj3:&$  ",
"  o,zvtBthd;o  ",
" $+*etxVbfr@+$ ",
" #%i4p0w7a65=# ",
" #%8490w7q65O# ",
" #%8490w7q65O# ",
" #%8490w7q65O# ",
" #%8490w7q65O# ",
" #%849e47q65O# ",
" #%i4peh7a65=# ",
" $+1gcsmnfr@+$ ",
"  o-CgkskrM->  ",
"  $&;@ldl@:&$  ",
"   $.XuuuX.$   "
};
