/* XPM */
static char *_53f89be61a8483dcca0afc40d9ba34fhi7S8u0qCTvi0b2x[] = {
/* columns rows colors chars-per-pixel */
"48 48 18 1 ",
"  c #617072",
". c #3F494C",
"X c #465154",
"o c #5C6B6D",
"O c #859392",
"+ c #4E5A5D",
"@ c #566365",
"# c #333B3E",
"$ c #8A9896",
"% c #647375",
"& c #394245",
"* c #798787",
"= c #728081",
"- c #6B7A7B",
"; c #7F8D8C",
": c #2B3034",
"> c #96A29F",
", c #A4ADA9",
/* pixels */
":::::::#################################&..XX+++",
":::::#:################################&&.XX++++",
"::::::####&&&#&#&#&#&#&#&#&#&#&#&#####&&..X+++@@",
":::::###&&&&&&&&&&&&&&&&&&&&&&&&&&&&&&&..X++@@@@",
"::::##&&................................X++@@ooo",
":::##&&.XXXXXXXXXXXXXXXXXXXXXXXXXXXXXXX++@@o %%%",
":###&&.X++++++++++++++++++++++++++++++++@o %--==",
"####&.X+@@@@@@@@@@@@@@@@@@@@@@@@@@@@@@@oo%-==***",
"###&.X+@@oo oooooooooooooooooooooooo@oo %-=*;;OO",
"###&.X+@o                          o   %-=*;OO$$",
"##&&.X+@o %%%%                        %%-=*;O$$$",
"##&&.X+@o %%%%%%%%%%%%%%%%%%%%%%%%     --=*;O$$$",
"##&&.X+@o %%%%%                       %%-=*;O$$$",
"###&.X+@o %%%   % % % % % % % % %     %%-=*;O$$$",
"##&&.X+@o  %%                          %-=*;OO$$",
"###&.X+@o  %                          %%-=*;OO$$",
"##&&.X+@o  % %                     o   %-=*;OO$$",
"###&.X+@o  %                           %-=*;OO$$",
"##&&.X+@o  % %                      o  %-=*;OO$$",
"###&.X+@o  %                          %%-=*;OO$$",
"##&&.X+@o  % %                         %-=*;OO$$",
"###&.X+@o  %                        o  %-=*;OO$$",
"##&&.X+@o  % %                         %-=*;OO$$",
"###&.X+@o  %                       o  %%-=*;OO$$",
"##&&.X+@o  % %                         %-=*;OO$$",
"###&.X+@o  %                           %-=*;OO$$",
"##&&.X+@o  % %                     o   %-=*;OO$$",
"###&.X+@o  %                          %%-=*;OO$$",
"##&&.X+@o  % %                      o  %-=*;OO$$",
"###&.X+@o  %                           %-=*;OO$$",
"##&&.X+@o  % %                         %-=*;OO$$",
"###&.X+@o  %                        o %%-=*;OO$$",
"##&&.X+@o  % %                         %-=*;OO$$",
"###&.X+@o  %                       o   %-=*;OO$$",
"###&.X+@o                           o  %-=*;OO$$",
"###&.X+@o       o     o     o     o o  %-=*;OO$$",
"###&.X+@o         o     o     o   ooo  %-=*;OO$$",
"###&.X+@o            o     o    o    o %-=*;OO$$",
"##&&.X+@o %%%                          %-=*;O$$$",
"#&&..++o %%%-%%%%%%%%%%%%%%%%%%%%%%%%%%-==;;O$$$",
"&&..X+@o%------------------------------==*;O$$>>",
"...X+@o%-===============================*;O$>>>>",
".XX++@ -=**;************************=**;;O$>>>>,",
"XX++@o%=*;;;;;;;;;;;;;;;;;;;;;;;;;;;;;;OO$>>>,,,",
"X++@@ -=;OOO$OOOOOOOOOOOOOOOOOOOOO;O;OOO$>>>,,,,",
"+++@o%-*;O$$$$OOOOOOOOOOOOOOOOOOOOOOOO$$$>>,,,,,",
"++@@o%=*O$$$$$$$$$$$$$$$$$$$$$$$$$$$$$$$>>>,,,,,",
"++@@ %=*O$$$$$$$$$$$$$$$$$$$$$$$$$$$$$$$>>>,,,,,"
};
