/* XPM */
static char *a4cae3b219464573c0a80d27bbc9d79eAouXZSA9gzbhYYWH[] = {
/* columns rows colors chars-per-pixel */
"40 29 35 1 ",
"  c None",
". c #4CAF50",
"X c #4CAF50",
"o c #4CAF50",
"O c #4CAF50",
"+ c #4CAF50",
"@ c #4CAF50",
"# c #4CAF50",
"$ c #4CAF50",
"% c #4CAF50",
"& c #4CAF50",
"* c #4CAF50",
"= c None",
"- c #4CAF50",
"; c #4CAF50",
": c #4CAF50",
"> c #4CAF50",
", c #4CAF50",
"< c #4CAF50",
"1 c #4CAF50",
"2 c #4CAF50",
"3 c #4CAF50",
"4 c #4CAF50",
"5 c #4CAF50",
"6 c #4AAE4E",
"7 c #6CBE70",
"8 c #F2F9F2",
"9 c white",
"0 c #A7D8A9",
"q c #5DB761",
"w c #7CC57F",
"e c #52B256",
"r c #ADDAAF",
"t c #9FD4A1",
"y c #AEDBB0",
/* pixels */
"      $+55*o                o*55+$      ",
"      $+55*o                o*55+$      ",
"      $#55*o                o*55#$      ",
"      $<&X1<..O           ..<1X&<$      ",
"          O;55,          ,55;O          ",
"          O;55,          ,55;O          ",
"       $%$O;55,$%%%%%%%%$,55;O$%$       ",
"       :##>5554##########4555>##:       ",
"       #555555555555555555555555#       ",
"       +555666655555555556666555+       ",
"   oOOO>55e777q5555555555q777e55>OOOo   ",
"   2@@@55678880655555555608887655@@@2   ",
"   .5555567899r6555555556r9987655555.   ",
"   25555567899y6555555556y99876555552   ",
":::+555555qt00w5555555555w00tq555555+:::",
"5555555555566665555555555666655555555555",
"5555555555555555555555555555555555555555",
"5555@@@55555555555555555555555555@@@5555",
"555+OOO>555555555555555555555555>OOO+555",
"555X   +555555555555555555555555+   X555",
"555&  $+555555555555555555555555+$  &555",
"555&  $+55@>################>@55+$  &555",
"555&  $+55*o$%%%%%%%%%%%%%%$o*55+$  &555",
"555&  $+55*o                o*55+$  &555",
"555&  $+55*o                o*55+$  &555",
"...-  $-..<1XXXXX13  31XXXXX1<..-$  -...",
"       $  3@555555-  -555555@3  $       ",
"          O;55555@-  -@55555;O          ",
"          O;55555@-  -@55555;O          ";
"			.......    .......           "
};
