/* XPM */
static char *_4e6220e6c3d4e1db2a54039e778e74a6rCD5ZvEpmSz4bMk[] = {
/* columns rows colors chars-per-pixel */
"50 48 176 2 ",
"   c #47704C",
".  c #845337",
"X  c #906D58",
"o  c #9C8E82",
"O  c #8E8681",
"+  c #9C9890",
"@  c None",
"#  c #8A4622",
"$  c #863D16",
"%  c #906D58",
"&  c #A0AEAF",
"*  c #853911",
"=  c #814424",
"-  c #7E3C19",
";  c #813C17",
":  c #8E6C57",
">  c #98938B",
",  c #8B7C73",
"<  c #9C9B94",
"1  c #9B9289",
"2  c #9C9B94",
"3  c #803D19",
"4  c #A9572A",
"5  c #80878C",
"6  c #9E8C7E",
"7  c #8E7C6F",
"8  c #7F482B",
"9  c #85553A",
"0  c #85583F",
"q  c #9D9C96",
"w  c #85583F",
"e  c #824727",
"r  c #803C18",
"t  c #803C18",
"y  c #803C18",
"u  c #9D9C96",
"i  c #814524",
"p  c #80898F",
"a  c #000000",
"s  c #80868A",
"d  c #A95121",
"f  c #80898F",
"g  c #A24717",
"h  c #A24716",
"j  c #86634E",
"k  c #8A3609",
"l  c #893508",
"z  c #83360C",
"x  c #9A3E0E",
"c  c #9DA6A5",
"v  c #AC5B2E",
"b  c #978D84",
"n  c #8E7463",
"m  c #9FABAC",
"M  c #913809",
"N  c #885F46",
"B  c #84563C",
"V  c #9FABAC",
"C  c #9FABAC",
"Z  c #9B9C96",
"A  c #824B2D",
"S  c #8E6F5B",
"D  c #938377",
"F  c #94887D",
"G  c #917A69",
"H  c #989188",
"J  c #7F736E",
"K  c #89573B",
"L  c #927F70",
"P  c #8D6A54",
"I  c #AD6842",
"U  c #99968F",
"Y  c #9B9C96",
"T  c #8D6A54",
"R  c #824B2D",
"E  c #7E6558",
"W  c #98948C",
"Q  c #989188",
"!  c #98948C",
"~  c #AB7859",
"^  c #865133",
"/  c #875538",
"(  c #86563A",
")  c #8B654D",
"_  c #824422",
"`  c #A19C94",
"'  c #824422",
"]  c #A98771",
"[  c #82421F",
"{  c #A59486",
"}  c #7E6C63",
"|  c #808B92",
" . c #AD6138",
".. c #AA8065",
"X. c #AD6138",
"o. c #AB5627",
"O. c #808385",
"+. c #A64C1B",
"@. c #9E4212",
"#. c #A64C1B",
"$. c #80888D",
"%. c #AD6138",
"&. c #856552",
"*. c #963B0B",
"=. c #86350A",
"-. c #AC704D",
";. c #A0AEAF",
":. c #963B0B",
">. c #86350A",
",. c #86350A",
"<. c #8A847E",
"1. c #963B0B",
"2. c #835A43",
"3. c #A0AEAF",
"4. c #968B81",
"5. c #907766",
"6. c #907766",
"7. c #907766",
"8. c #938173",
"9. c #8A6249",
"0. c #8E6C57",
"q. c #9F958B",
"w. c #8E6C57",
"e. c #938173",
"r. c #7F736E",
"t. c #A0AFB1",
"y. c #9FACAC",
"u. c #9DA6A5",
"i. c #A0AFB1",
"p. c #7F736E",
"a. c #9FACAC",
"s. c #808C94",
"d. c #9DA6A5",
"f. c #A98771",
"g. c #7E6558",
"h. c #807F80",
"j. c #AB7859",
"k. c #808B92",
"l. c #AC5B2E",
"z. c #A24716",
"x. c #807F80",
"c. c #AB7859",
"v. c #9DA6A5",
"b. c #844A2B",
"n. c #AD6842",
"m. c #948274",
"M. c #A59486",
"N. c #807F80",
"B. c #9B9D98",
"V. c #A95121",
"C. c #AB7859",
"Z. c #8E7463",
"A. c #9DA6A5",
"S. c #7D5540",
"D. c #7F736E",
"F. c #928073",
"G. c #A98771",
"H. c #7E6558",
"J. c #A59486",
"K. c #A19C94",
"L. c #A19C94",
"P. c #A98771",
"I. c #9A9B95",
"U. c #94887D",
"Y. c #865133",
"T. c #9D9C96",
"R. c #8C7F92",
"E. c #9127A3",
"W. c #6D9D93",
"Q. c #BDA98C",
"!. c #808180",
"~. c #9B9C96",
"^. c #808B92",
"/. c #938173",
"(. c #807F80",
"). c #7D5540",
/* pixels */
"^.^.k.s.a | f 5 p O a a a a a a a a a a a a a a a a a a a a a a a a a a a a a a a a a a a a a a a a ",
"^.^.k.$.a | f 5 p O a a a a a a a a a a a a a a a a a a a a a a a a a a a a a a a a a a a a a a a a ",
"s s s $.a O.f 5 p O a a a a a a a a a a a a a a a a a a a a a a a a a a a a a a a a a a a a a a a a ",
"(.(.N.x.h.O.<.5 , O a a a a a a a a a a a a a a a a a a a a a a a a a a a a a a a a a a a a a a a a ",
"J J J D.r.} p.7 , % a a a a a a a a a a a a a a a a a a a a a a a a a a a a a a a a a a a a a a a a ",
"E E E g.H.} &.j X % a a a a a a a a a a a a a a a a a a a a a a a a a a a a a a a a a a a a a a a a ",
").).S.B 2.0 w 9 . # a a a a a a a a a a a a a a a a a a a a a a a a a a a a a a a a a a a a a a a a ",
"8 8 8 R i A e = . # a a a a a a a a a a a a a a a a a a a a a a a a a a a a a a a a a a a a a a a a ",
"- - - r t y 3 = $ # a a a a a a a a a a a a a a a a a a a a a a a a a a a a a a a a a a a a a a a a ",
"- - - r t y 3 * $ # a a a a a a a a a a a a a a a a a a a a a a a a a a a a a a a a a a a a a a a a ",
"@ @ @ _ i ' e = $ # a a a a a a a a a a a a a a a a a a a a a a a a a a a a a a a a a a a a a a a a ",
"K K K B / 0 w 9 . # a a a a a a a a a a a a a a a a a a a a a a a a a a a a a a a a a a a a a a a a ",
": : : 0.T P w.S X % a a a a a a a a a a a a a a a a a a a a a a a a a a a a a a a a a a a a a a a a ",
"/./.8.D m.e.L 7 , O a a a a a a a a a a a a a a a a a a a a a a a a a a a a a a a a a a a a a a a a ",
"> > > Q ! H 1 W o + a a a a a a a a a a a a a a a a a a a a a a a a a a a a a a a a a a a a a a a a ",
"~.~.Z Y I.2 u q < + a a a a a a a a a a a a a a a a a a a a a a a a a a a a a a a a a a a a a a a a ",
"U U U q.! 2 1 W < + a a a a a a a a a a a a a a a a a a a a a a a a a a a a a a a a a a a a a a a a ",
"F F F D 4.U.<.6 o O a a a a a a a a a a a a a a a a a a a a a a a a a a a a a a a a a a a a a a a a ",
"n n n 5.7.6.Z.S X % a a a a a a a a a a a a a a a a a a a a a a a a a a a a a a a a a a a a a a a a ",
"N N N 9.2.0 w j . % a a a a a a a a a a a a a a a a a a a a a a a a a a a a a a a a a a a a a a a a ",
"@ @ 8 R b.A e = . # a a a a a a a a a a a a a a a a a a a a a a a a a a a a a a a a a a a a a a a a ",
"; ; ; r t y 3 * $ # a a a a a a a a a a a a a a a a a a a a a a a a a a a a a a a a a a a a a a a a ",
"z z z >.,.k =.* $ # a a a a a a a a a a a a a a a a a a a a a a a a a a a a a a a a a a a a a a a a ",
"l l l >.,.k =.* $ # a a a a a a a a a a a a a a a a a a a a a a a a a a a a a a a a a a a a a a a a ",
"M M M 1.:.k *.* $ # a a a a a a a a a a a a a a a a a a a a a a a a a a a a a a a a a a a a a a a a ",
"x x x 1.:.@.*.g $ # a a a a a a a a a a a a a a a a a a a a a a a a a a a a a a a a a a a a a a a a ",
"h h h z.+.@.#.g 4 # a a a a a a a a a a a a a a a a a a a a a a a a a a a a a a a a a a a a a a a a ",
"d d d V.+.o.#.g 4 # a a a a a a a a a a a a a a a a a a a a a a a a a a a a a a a a a a a a a a a a ",
"v v v  .l.o.%.X.4 # a a a a a a a a a a a a a a a a a a a a a a a a a a a a a a a a a a a a a a a a ",
"I I I  .-.n.%.X.4 % a a a a a a a a a a a a a a a a a a a a a a a a a a a a a a a a a a a a a a a a ",
"~ ~ ~ c.-.C...j.X % a a a a a a a a a a a a a a a a a a a a a a a a a a a a a a a a a a a a a a a a ",
"] ] ] P.f.G...6 o O a a a a a a a a a a a a a a a a a a a a a a a a a a a a a a a a a a a a a a a a ",
"{ { { q.J.M.1 6 o + a a a a a a a a a a a a a a a a a a a a a a a a a a a a a a a a a a a a a a a a ",
"` ` ` L.K.2 u q < + a a a a a a a a a a a a a a a a a a a a a a a a a a a a a a a a a a a a a a a a ",
"~.~.Z Y T.2 u q < + a a a a a a a a a a a a a a a a a a a a a a a a a a a a a a a a a a a a a a a a ",
"> > > Q ! H 1 W o + a a a a a a a a a a a a a a a a a a a a a a a a a a a a a a a a a a a a a a a a ",
"/./.8.D F.e.L 7 , O a a a a a a a a a a a a a a a a a a a a a a a a a a a a a a a a a a a a a a a a ",
": : : 0.T P w.S X % a a a a a a a a a a a a a a a a a a a a a a a a a a a a a a a a a a a a a a a a ",
"( ( ( B / 0 w 9 . # a a a a a a a a a a a a a a a a a a a a a a a a a a a a a a a a a a a a a a a a ",
"@ @ @ _ i ' e = $ # a a a a a a a a a a a a a a a a a a a a a a a a a a a a a a a a a a a a a a a a ",
"; ; ; r t y 3 * $ # a a a a a a a a a a a a a a a a a a a a a a a a a a a a a a a a a a a a a a a a ",
"[ [ [ _ i ' 3 = $ # a a a a a a a a a a a a a a a a a a a a a a a a a a a a a a a a a a a a a a a a ",
"^ ^ ^ R / A Y.9 . # a a a a a a a a a a a a a a a a a a a a a a a a a a a a a a a a a a a a a a a a ",
") ) ) 9.T P &.j X % a a a a a a a a a a a a a a a a a a a a a a a a a a a a a a a a a a a a a a a a ",
"G G G 5.7.6.L 7 , % a a a a a a a a a a a a a a a a a a a a a a a a a a a a a a a a a a a a a a a a ",
"b b b Q 4.H 1 6 o O a a a a a a a a a a a a a a a a a a a a a a a a a a a a a a a a a a a a a a a a ",
"~.~.Z Y B.2 u q < + a a a a a a a a a a a a a a a a a a a a a a a a a a a a a a a a a a a a a a a a ",
"c c c A.v.C V m d.u.a a a a a a a a a a a a a a a a a a a a a a a a a a a a a a a a a a a a a a a a "
};																									
