/* XPM */
static char *c3425f1a66054685ba34df8db30bafe5M5VT9HhewxHDRvV2[] = {
/* columns rows colors chars-per-pixel */
"48 48 9 1 ",
"  c #111111",
". c gray4",
"X c #181818",
"o c #202020",
"O c #373636",
"+ c #0E0E0E",
"@ c #2D2D2D",
"# c #272727",
"$ c #484848",
/* pixels */
"...+ Xo#@OOOOOO@#oX    Xo#@@OOOOOOOO$O$OO@oX ...",
"...  Xo#@@@OOO@@#oX    Xo#@@O@O@@OOOO$OOO@oX ...",
"...+ Xo#@@O@@@@@#oX    Xo#@@@@@@O@OOOOOOO#oX ...",
"...  Xo##@@@@@@#ooX ++ Xoo#@@@@@@@@OOOOO@#oX ...",
"...+ XXo####@###oXX ++ XXoo#######@@@O@@#oX +...",
"...+  XXooooooooXX +..+ XXooooooooo#####oXX +...",
"....+  XXXXXXXXXX ++...+  XXXXXXoXooooooXX +....",
"..+.++     X X   ++....++     X  XX XX X  ++....",
".....++++       ++++++++++     +++       ++++...",
"..+.+++                  X    +++++++           ",
"....+   XXXXXXXXXXXXXXXoooooXX ++.++  XXXXXXXXXX",
"...+  XXoooooooooooooo##@@@@#oX +++ XXoooooooooo",
"...+ Xoo##@@@@@@@@@@@@@OOOOOO#oX + XXo##@@@@@@@@",
"...  Xo#@OOOOO@O@O@OOOO$$$$$O@#X   Xo#@OOOOOOOOO",
"... Xo#@OOOOOOOOOOOOOO$$$$$$$O#X   o#@OOOOOOOOOO",
"...+Xo#@OOOOOOOOOOOOOO$$$$$$$O#X   X#@OOOOOOOOOO",
"...+ Xo#@OOOOOOOOOOOOOO$$$$$$@#X   Xo#@OOOOOOOOO",
"...+ Xoo##@@@@@@@@#@@@@OOO$OO#oX + XXo##@@@@@@@@",
"...+  XXooooooooooooo###@@@@#oX +++ XXoooooooooo",
"....+   XXXXXXXXXXXXXXXXooooXX ++.++  XXXXXXXXXX",
"....+++                X      +++++++           ",
"..+..++++       ++++++++ +     +++       ++++...",
"....++           ++....++      X XXXXXXX  ++....",
"...++  XXXXXoXXXX ++...+  XXXXXXoXXoooooXX +....",
"...+  XXooooooooXX +..+ XXooooo#oo######ooX +...",
"...+ XXo####@###oXX ++ XXo########@@@O@@#oX +...",
"...+ Xoo#@@@@@@#ooX ++ Xoo#@@@@@@@@OOOOO@#oX ...",
"...+ Xoo#@@@@@@#ooX ++ Xoo#@@@@@@@@@OOOO@#oX ...",
"...+ XXo########oXX ++ XXo########@@@@@@#oX +...",
"...+  XXooooooooXX +..+ XXoooooooo####@#ooX +...",
"...++  XXXXoXXXXX ++...+  XXXXoXoXooooooXX +....",
"....++    X  X   ++....++   X  X X XXXXX  ++....",
".....++++       ++++++++++     +++       ++++...",
"..+.+++                  X    +++++++           ",
"....+   XXXXXXXXXXXXXXXoooooXX ++.++  XXXXXXXXXX",
"...+  XXoooooooooooooo##@@@@#oX +++ XXoooooooooo",
"...+ Xoo##@@@@@@@@@@@@@OOOOOO#oX + XXo##@@@@@@@@",
"...  Xo#@OOOOO@O@O@OOOO$$$$$O@#X   Xo#@OOOOOOOOO",
"... Xo#@OOOOOOOOOOOOOO$$$$$$$O#X   o#@OOOOOOOOOO",
"...+Xo#@OOOOOOOOOOOOOO$$$$$$$O#X   X#@OOOOOOOOOO",
"...+ Xo#@OOOOOOOOOOOOOO$$$$$O@#X   Xo#@OOOOOOOOO",
"...+ Xoo#@@@@@@@#@#@@@@OOO$OO#oX + XXo#@@@@@@@#@",
"...+  XXooooooooooooo###@@@@#oX +++ XXoooooooooo",
"....+  XXXXXXXXXXXXXXXXXooooXX  +++  XXXXXXXXXXX",
".....+++                      ++...+++          ",
"...+..................+.++++.....+..............",
"................................................",
"................................................"
};
